<?xml version="1.0"?>
<svg xmlns="http://www.w3.org/2000/svg" xmlns:xlink="http://www.w3.org/1999/xlink" xmlns:svgjs="http://svgjs.com/svgjs" version="1.1" width="512" height="512" x="0" y="0" viewBox="0 0 496 496" style="enable-background:new 0 0 512 512" xml:space="preserve" class=""><g><path xmlns="http://www.w3.org/2000/svg" d="m434 464h-32v-392c0-8.836-7.163-16-16-16h-120v-40c0-8.836-7.163-16-16-16h-111c-8.836 0-16 7.164-16 16v40h-13c-8.836 0-16 7.164-16 16v392h-32c-8.836 0-16 7.164-16 16s7.164 16 16 16h372c8.837 0 16-7.164 16-16s-7.163-16-16-16zm-279-432h79v24h-79zm61 432v-68h64v68zm96 0v-68h7c8.837 0 16-7.164 16-16s-7.163-16-16-16c-55.654 0-90.452 0-142 0-8.836 0-16 7.164-16 16s7.164 16 16 16h7v68h-58v-376h244v376zm-87-329c0 8.836-7.164 16-16 16h-18c-8.836 0-16-7.164-16-16s7.164-16 16-16h18c8.836 0 16 7.164 16 16zm95 0c0 8.836-7.163 16-16 16h-18c-8.837 0-16-7.164-16-16s7.163-16 16-16h18c8.837 0 16 7.164 16 16zm-95 60c0 8.836-7.164 16-16 16h-18c-8.836 0-16-7.164-16-16s7.164-16 16-16h18c8.836 0 16 7.164 16 16zm95 0c0 8.836-7.163 16-16 16h-18c-8.837 0-16-7.164-16-16s7.163-16 16-16h18c8.837 0 16 7.164 16 16zm-95 60c0 8.836-7.164 16-16 16h-18c-8.836 0-16-7.164-16-16s7.164-16 16-16h18c8.836 0 16 7.164 16 16zm95 0c0 8.836-7.163 16-16 16h-18c-8.837 0-16-7.164-16-16s7.163-16 16-16h18c8.837 0 16 7.164 16 16zm-95 60c0 8.836-7.164 16-16 16h-18c-8.836 0-16-7.164-16-16s7.164-16 16-16h18c8.836 0 16 7.164 16 16zm95 0c0 8.836-7.163 16-16 16h-18c-8.837 0-16-7.164-16-16s7.163-16 16-16h18c8.837 0 16 7.164 16 16z" fill="#39fb9e" data-original="#000000" style="" class=""/></g></svg>
